<?xml version="1.0" encoding="UTF-8"?><svg id="a" xmlns="http://www.w3.org/2000/svg" viewBox="0 0 230.17 283.35"><defs><style>.b{fill:#e94d38;}.c{fill:#fff;}.d{fill:#1d1d1b;}</style></defs><polygon class="d" points="115.08 0 0 71.34 0 185.72 0 283.35 230.17 283.35 230.17 185.72 230.17 71.34 115.08 0"/><path class="c" d="M105.21,145.47c.84-.76,3.11-1.19,3.11-1.19-1.6-.34-3.45-.65-4.29-1.83-.67,.89-1.76,1.98-3.9,2.99,2.52-.33,4.23,.79,5.07,.03m44.25-62.19c-21.05-19.29-55.34-21.56-61.77-19.03-6.43,2.52-12.86,18.4-14.5,23.45-1.64,5.04,.76,12.35,2.02,11.97,0,0,1.26-1.43,2.1-2.6,.84-1.18,3.36-2.77,6.72-3.36,3.36-.59,6.13-.84,10.17,.84,4.03,1.68,3.78,4.29,3.87,7.81,.07,3.15-1.09,2.69-3.28,.5-2.19-2.18-6.64-3.78-9.41-3.61-2.77,.17-7.98,3.45-10.08,6.89-2.1,3.44-4.29,8.82-3.95,12.61s-.23,3.7-.23,3.7c-.76,.25-.78-1.6-3.47-1.43-4.71,.42-2.69,13.87-2.86,14.54,1.01,1.51,5.21,10,5.97,7.48,.76-2.52-2.44-13.36-3.28-14.54-.84-1.18-1.93-4.71,1.68-3.11,3.61,1.6,4.37,9.83,4.45,14.03,.08,4.05,1.36,11.56,2.87,15.01,1.36,.55,1.17-.35,2.57-3.73,1.23-2.98,3.34-3.66,5.06-6.74,.54-.96,11.35-6.81,12.35-7.31,1.93-.96-.42-1.93-1.93-3.19-1.51-1.26,.34-3.7,.34-3.7-.59-.25-1.68-3.61-1.6-4.03s.92-.25,3.7,2.86c2.77,3.11,6.3,.42,9.08-1.34,2.77-1.76,5.63-.5,6.89,1.43,1.26,1.93,4.45-1.76,4.37,.84-.08,2.61-3.53,3.03-3.53,3.03l-1.34,.34c-1.34,.34-2.1,1.6-2.56,2.23-1.41,1.92,1.39,2.27,8.19,2.4,6.81,.13,11.22,4.54,12.6,7.19,1.39,2.65,6.15,5.55,7.67,5.32,3.22-.49,5.02-4.55,5.02-4.55,0,0,2.72-1.87,3.62-4.44,1.52-4.32,1.99-8.75,.82-12.84-1.51-5.29,2.13-12.27,5.06-18.79,2.77-6.18-.25-9.08-2.77-13.87-2.52-4.79-.63-12.23-.63-12.23m-56.57,21.77c-1.01-.7-2.42-.99-2.42-.99,.32,3.36-2.28,4.32-2.28,4.32,0,0-.7,.18-3.06,.52-2.8-.06-2.41-4.39-2.41-4.39,0,0-1.05,.29-1.97,1.62-.9,1.3-.09,2.33,.09,2.55,.17,.22-.18,.22-.61,.22s-1.31,.48-1.93,.83c-.61,.35-3.29,1.13-2.85,.83,.26-.17,2.38-2.87,3.24-4.26,1.05-1.69,1.71-2.41,3.94-3.54,2.49-1.27,3.92-1.52,6.81-.63,4.02,1.24,5.14,3.49,5.14,3.49-.52,.44-.69,.13-1.69-.57m46.95,2.6c-1.34-.67-1.93-.42-2.94-.42s-.76,0-1.01-1.09c-.25-1.09-1.45-2.25-1.87-2.5,0,0-1.21,3.8-4.07,3.17-.85-.19-2.62-.23-3.19-.33-1.89-.33-1.19-4.79-1.19-4.79,0,0-.02-.25-1.51,.06-1.62,.34-4.81,3.8-5.15,3.47-.34-.34-.25-.67-.25-.67,.59-1.34,2.35-4.96,5.21-5.38,2.86-.42,8.15-.08,10.5,2.69,2.35,2.77,2.77,2.94,4.2,3.7,1.43,.76,3.28,1.51,3.28,1.51,0,0-.67,1.26-2.02,.59m2.6-3.61c-.25,.5-.59-.08-1.09-1.18-.5-1.09-1.76-2.19-3.7-3.61-1.93-1.43-5.21-2.6-7.06-3.02-1.85-.42-4.87,.76-6.39,.67-1.51-.08-2.94,0-4.45,1.51-1.51,1.51-3.36,2.52-4.79,2.6-1.43,.08-2.35,.25-3.11-3.03-.76-3.28,.34-3.78,2.44-5.21,2.1-1.43,6.98-.67,9.83-.76,2.86-.08,4.87,.84,7.39,1.18,2.52,.34,5.97,.76,8.49,3.87,2.52,3.11,2.68,6.49,2.44,6.98m-18.15,46.56c-1.51-1.09-4.03-3.61-4.37-3.36-.34,.25-2.02,.42-5.04,0-3.03-.42-7.9-.17-9.58,.93-3.28-.76-5.13-.42-6.64,.33-1.51,.76-3.86,1.35-4.87,1.43-1.01,.08-4.38,1.27-5.39,3.45-1.01,2.19-1.2,2.96-2.8,5.49-1.6,2.52,1.89,9.8,3.74,11.48,1.85,1.68,5.8,.93,7.06-.59,1.26-1.51,2.86-3.02,4.2-1.77,1.34,1.26,2.44,1.85,2.77,.59,.34-1.26,2.44-3.11,4.12-3.11s4.03,1.93,4.87,4.46c.84,2.52,4.03,3.45,5.63,2.61,1.6-.84,3.87-3.19,6.56-5.04,2.69-1.85,4.05-5.08,4.62-9.41,.78-5.92-3.36-6.38-4.87-7.48m52.1-32.27c-1.26-3.19-3.45-4.68-6.55-4.45-2.35,.17-5.46,1.09-5.55,6.22,1.01-.67,.69-.4,1.34-1.01,1.26-1.18,4.03-2.77,5.63-2.35,1.6,.42,4.37,3.36,4.03,4.54-.33,1.18-1.51,1.51-2.94,.67-1.43-.84-3.19-.92-4.62,.67-1.43,1.6-2.86,3.78-2.69,6.64,.17,2.86-.25,5.46-.67,6.81-.42,1.34-.08,3.44,1.01,3.53,1.09,.08,1.68-.92,2.52-1.93,.84-1.01,1.93-1.77,1.93-.76s-.76,2.86-1.6,3.78c-.84,.93-3.53,3.03-3.86,4.54-.34,1.51,.92,4.12,.92,4.12,.5,.51,1.09,.25,2.1-1.51,1.01-1.77,7.98-16.89,8.91-18.91,.92-2.02,1.34-7.4,.08-10.59"/><path class="c" d="M57.15,194.62c-5.43,0-8.21,4.16-8.21,9.78s2.81,9.78,8.21,9.78,8.21-4.16,8.21-9.78-2.81-9.78-8.21-9.78m0,17.04c-3.65,0-5.29-3.08-5.29-7.27s1.62-7.27,5.29-7.27,5.29,3.08,5.29,7.27-1.62,7.27-5.29,7.27m-23.87,2.19h2.81v-7.75h6.91v-2.43h-6.91v-6.29h8.26v-2.43h-11.07v18.91Zm50.48-6.43c0,.92,.03,1.76,.08,2.46-3.46-4.83-6.48-9.43-9.45-14.94h-2.73v18.91h2.62v-11.07c0-1.08-.03-2.16-.11-3.11,2.86,5.21,5.91,9.4,9.45,14.18h2.75v-18.91h-2.62v12.48Zm15.58-12.48h-5.78v18.91h5.78c5.75,0,9.29-3.67,9.29-9.48s-3.51-9.43-9.29-9.43m-.08,16.48h-2.89v-14.04h2.89c4.46,0,6.43,2.75,6.43,7s-2,7.05-6.43,7.05m20.01-16.48c-2.57,5.43-4.89,12.32-6.83,18.91h2.92c.46-1.65,.94-3.3,1.46-4.92h7.83c.51,1.62,1,3.27,1.46,4.92h2.92c-1.92-6.62-4.29-13.48-6.83-18.91h-2.92Zm-1.7,11.56c1.13-3.51,2.27-6.62,3.16-8.62,.89,2,2.03,5.1,3.16,8.62h-6.32Zm49.78-11.88c-5.43,0-8.21,4.16-8.21,9.78s2.81,9.78,8.21,9.78,8.21-4.16,8.21-9.78-2.81-9.78-8.21-9.78m0,17.04c-3.65,0-5.29-3.08-5.29-7.27s1.62-7.27,5.29-7.27,5.29,3.08,5.29,7.27-1.62,7.27-5.29,7.27m26.61-16.72v12.48c0,.92,.03,1.76,.08,2.46-3.46-4.83-6.48-9.43-9.45-14.94h-2.73v18.91h2.62v-11.07c0-1.08-.03-2.16-.11-3.11,2.86,5.21,5.91,9.4,9.45,14.18h2.75v-18.91h-2.62Zm-63.08,2.43h5.43v16.47h2.81v-16.47h5.43v-2.43h-13.67v2.43Zm19.16,16.47h2.81v-18.91h-2.81v18.91Z"/><g><path class="b" d="M114.31,223.9h7.31c5.94,0,9.68,2.92,9.68,8.24s-3.74,8.2-9.68,8.2h-2.4v7.58h-4.91v-24.02Zm7.2,4.19h-2.3v8.1h2.3c2.99,0,4.74-1.03,4.74-4.05s-1.75-4.05-4.74-4.05"/><path class="b" d="M133.64,228.08c0-1.58,1-2.64,2.75-2.64s2.71,1.06,2.71,2.64-1,2.64-2.71,2.64-2.75-1.06-2.75-2.64m5.11,19.83h-4.74v-14.86h4.74v14.86Z"/><path class="b" d="M156.94,247.16c-1.51,.69-3.74,1.17-6,1.17-5.52,0-9.3-3.5-9.3-9.2s3.46-9.16,8.51-9.16c4.5,0,7.45,3.19,7.45,7.79,0,1.03-.07,1.92-.14,2.61h-10.84c.45,2.75,2.06,3.98,4.8,3.98,1.68,0,3.29-.38,4.77-.99l.75,3.81Zm-10.4-9.68h6.52v-.41c0-1.92-1.03-3.33-2.92-3.33-1.99,0-3.29,1.41-3.6,3.74"/><path class="b" d="M167.69,229.98c-2.64,0-5.07,.56-6.98,1.5v16.44h4.74v-13.38c.77-.39,1.82-.63,3.02-.63,.65,0,1.28,.07,1.87,.19,.33-1.87,.67-3.81,.67-3.81-1.05-.2-2.16-.31-3.32-.31"/><path class="b" d="M180.08,229.98c-2.64,0-5.07,.56-6.98,1.5v16.44h4.74v-13.38c.77-.39,1.82-.63,3.02-.63,.65,0,1.28,.07,1.87,.19,.33-1.87,.67-3.81,.67-3.81-1.05-.2-2.16-.31-3.32-.31"/><path class="b" d="M199.55,247.16c-1.51,.69-3.74,1.17-6,1.17-5.52,0-9.3-3.5-9.3-9.2s3.46-9.16,8.51-9.16c4.5,0,7.45,3.19,7.45,7.79,0,1.03-.07,1.92-.14,2.61h-10.84c.45,2.75,2.06,3.98,4.8,3.98,1.68,0,3.29-.38,4.77-.99l.75,3.81Zm-10.4-9.68h6.52v-.41c0-1.92-1.03-3.33-2.92-3.33-1.99,0-3.29,1.41-3.6,3.74"/><polygon class="b" points="101.93 223.9 97.02 223.9 94.71 228.13 98.89 228.13 101.93 223.9"/><path class="b" d="M104.28,237.76c0-4.6-2.95-7.79-7.44-7.79-5.04,0-8.51,3.71-8.51,9.16s3.77,9.2,9.3,9.2c2.26,0,4.49-.48,6-1.17l-.75-3.81c-1.48,.62-3.09,1-4.77,1-2.75,0-4.36-1.24-4.8-3.98h10.84c.07-.69,.14-1.58,.14-2.61m-4.53-.27h-6.52c.31-2.33,1.61-3.74,3.6-3.74,1.89,0,2.92,1.41,2.92,3.33v.41Z"/><path class="b" d="M42.1,242.63h-8.85c-.52,1.75-1,3.54-1.44,5.28h-5.04c2.2-8.03,5.28-17.53,8.34-24.02h5.11c3.05,6.49,6.18,15.96,8.37,24.02h-5.04c-.48-1.75-.96-3.53-1.44-5.28m-7.65-4.19h6.42c-1.17-3.88-2.26-7.31-3.19-9.33-.93,2.03-2.06,5.46-3.23,9.33"/><path class="b" d="M57.91,248.33c-2.54,0-5.39-.34-7.07-1.24v-23.19h4.74v6.48c.62-.24,1.48-.41,2.57-.41,5.28,0,8.85,3.26,8.85,8.92s-3.5,9.44-9.09,9.44m-.21-3.91c3.09,0,4.5-2.02,4.5-5.35s-1.41-5.18-4.46-5.18c-.79,0-1.54,.24-2.16,.52v9.68c.65,.24,1.27,.34,2.13,.34"/><path class="b" d="M77.09,248.33c-2.54,0-5.39-.34-7.07-1.24v-23.19h4.74v6.48c.62-.24,1.48-.41,2.57-.41,5.28,0,8.85,3.26,8.85,8.92s-3.5,9.44-9.09,9.44m-.21-3.91c3.09,0,4.5-2.02,4.5-5.35s-1.41-5.18-4.46-5.18c-.79,0-1.54,.24-2.16,.52v9.68c.65,.24,1.27,.34,2.13,.34"/></g></svg>